HIERARCHY
ROOT Hips
{
	OFFSET -0.001795 -0.223333 0.028219
	CHANNELS 6 Xposition Yposition Zposition Zrotation Yrotation Xrotation 
	JOINT LeftUpLeg
	{
		OFFSET 0.069520 -0.091406 -0.006815
		CHANNELS 3 Zrotation Yrotation Xrotation
		JOINT LeftLeg
		{
			OFFSET 0.034277 -0.375199 -0.004496
			CHANNELS 3 Zrotation Yrotation Xrotation
			JOINT LeftFoot
			{
				OFFSET -0.013596 -0.397961 -0.043693
				CHANNELS 3 Zrotation Yrotation Xrotation
				JOINT LeftToe
				{
					OFFSET 0.026358 -0.055791 0.119288
					CHANNELS 3 Zrotation Yrotation Xrotation
					End Site
					{
						OFFSET 0.000000 0.000000 0.000000
					}
				}
			}
		}
	}
	JOINT RightUpLeg
	{
		OFFSET -0.067670 -0.090522 -0.004320
		CHANNELS 3 Zrotation Yrotation Xrotation
		JOINT RightLeg
		{
			OFFSET -0.038290 -0.382569 -0.008850
			CHANNELS 3 Zrotation Yrotation Xrotation
			JOINT RightFoot
			{
				OFFSET 0.015774 -0.398415 -0.042312
				CHANNELS 3 Zrotation Yrotation Xrotation
				JOINT RightToe
				{
					OFFSET -0.025372 -0.048144 0.123348
					CHANNELS 3 Zrotation Yrotation Xrotation
					End Site
					{
						OFFSET 0.000000 0.000000 0.000000
					}
				}
			}
		}
	}
	JOINT Spine
	{
		OFFSET -0.002533 0.108963 -0.026696
		CHANNELS 3 Zrotation Yrotation Xrotation
		JOINT Spine1
		{
			OFFSET 0.005487 0.135180 0.001092
			CHANNELS 3 Zrotation Yrotation Xrotation
			JOINT Spine2
			{
				OFFSET 0.001457 0.052922 0.025425
				CHANNELS 3 Zrotation Yrotation Xrotation
				JOINT Neck
				{
					OFFSET -0.002778 0.213870 -0.042857
					CHANNELS 3 Zrotation Yrotation Xrotation
					JOINT Head
					{
						OFFSET 0.005152 0.064970 0.051349
						CHANNELS 3 Zrotation Yrotation Xrotation
						End Site
						{
							OFFSET 0.000000 0.000000 0.000000
						}
					}
				}
				JOINT LeftShoulder
				{
					OFFSET 0.078845 0.121749 -0.034090
					CHANNELS 3 Zrotation Yrotation Xrotation
					JOINT LeftArm
					{
						OFFSET 0.090977 0.030469 -0.008868
						CHANNELS 3 Zrotation Yrotation Xrotation
						JOINT LeftForeArm
						{
							OFFSET 0.259612 -0.012772 -0.027456
							CHANNELS 3 Zrotation Yrotation Xrotation
							JOINT LeftHand
							{
								OFFSET 0.249234 0.008986 -0.001171
								CHANNELS 3 Zrotation Yrotation Xrotation
								End Site
								{
									OFFSET 0.000000 0.000000 0.000000
								}
							}
						}
					}
				}
				JOINT RightShoulder
				{
					OFFSET -0.081759 0.118833 -0.038615
					CHANNELS 3 Zrotation Yrotation Xrotation
					JOINT RightArm
					{
						OFFSET -0.096012 0.032551 -0.009143
						CHANNELS 3 Zrotation Yrotation Xrotation
						JOINT RightForeArm
						{
							OFFSET -0.253742 -0.013329 -0.021401
							CHANNELS 3 Zrotation Yrotation Xrotation
							JOINT RightHand
							{
								OFFSET -0.255298 0.007772 -0.005559
								CHANNELS 3 Zrotation Yrotation Xrotation
								End Site
								{
									OFFSET 0.000000 0.000000 0.000000
								}
							}
						}
					}
				}
			}
		}
	}
}
MOTION
Frames: 17
Frame Time: 0.050000
-0.073820 0.926218 -0.059352 -1.598335 9.339249 10.268012 7.872101 -1.013458 -17.510982 3.731687 -1.060775 9.133911 -3.407003 -5.747261 2.352451 0.000000 0.000000 0.000000 -7.151444 0.661388 -19.379548 2.887446 -0.709521 23.981042 -7.793973 -19.033821 5.648519 0.000000 0.000000 0.000000 -2.577164 0.138463 -2.840473 1.406519 -0.244440 -6.574893 -0.293595 9.168139 -0.208969 0.239392 1.608704 -11.058000 0.000000 0.000000 0.000000 10.812296 4.595044 1.567568 -54.033558 -23.180941 1.675445 -141.212310 -60.661372 114.053165 0.000000 0.000000 0.000000 0.431170 3.936702 1.667837 53.153247 24.627205 7.884028 -134.722012 73.636404 -106.987014 0.000000 0.000000 0.000000 
-0.077008 0.933707 -0.055559 -2.156528 2.107742 10.410072 7.729347 -0.660997 -13.557891 3.847993 -0.825543 6.194485 -0.243091 1.318944 3.899697 0.000000 0.000000 0.000000 -6.014763 1.184132 -20.481766 0.717986 0.544108 23.070294 -3.872365 -10.822652 4.480939 0.000000 0.000000 0.000000 -2.965959 0.181624 -3.493847 3.432184 -1.179815 -6.221541 -0.138906 4.155406 0.009106 -0.500547 1.586648 -12.100952 0.000000 0.000000 0.000000 10.806334 5.426451 0.401535 -51.680050 -20.168895 2.077697 -144.862306 -61.552373 126.201331 0.000000 0.000000 0.000000 -2.277766 3.252204 1.194366 55.216143 24.757149 7.613349 -158.510431 72.361306 -141.394778 0.000000 0.000000 0.000000 
-0.080192 0.940161 -0.053173 -2.725020 -5.907497 11.442627 6.827884 -0.483331 -10.667226 5.479999 -0.844016 2.975355 2.478670 6.994325 7.330788 0.000000 0.000000 0.000000 -4.023325 1.798311 -20.975801 -1.179443 1.383800 19.889555 -1.846500 -6.274166 3.259766 0.000000 0.000000 0.000000 -3.378342 0.253600 -4.423561 4.618749 -1.785254 -5.404370 0.532636 -1.311763 -0.631712 -0.672832 1.059580 -14.065060 0.000000 0.000000 0.000000 12.411252 3.718381 -0.174100 -49.770015 -16.847789 2.349097 -154.447483 -63.297115 149.428505 0.000000 0.000000 0.000000 -4.540534 3.811731 1.750843 57.633295 25.346930 6.892034 -172.599296 70.670095 -167.499206 0.000000 0.000000 0.000000 
-0.082274 0.941909 -0.053040 -3.507390 -13.037419 11.743663 6.445599 -0.318194 -8.251061 5.618854 -0.822343 1.986660 5.875651 12.666017 7.918596 0.000000 0.000000 0.000000 -3.241753 2.217678 -21.711471 -2.283903 1.797190 18.297068 1.435972 0.930948 3.621057 0.000000 0.000000 0.000000 -3.196264 0.268398 -3.646163 5.734543 -2.231277 -5.976884 1.589432 -7.265698 -0.023614 -3.296936 1.773172 -15.874662 0.000000 0.000000 0.000000 13.486138 2.421159 -1.136779 -49.675590 -16.863856 4.049291 -165.779580 -67.721795 176.337237 0.000000 0.000000 0.000000 -6.964484 4.482774 2.832071 61.602598 25.943839 5.360469 175.959265 69.661089 168.211511 0.000000 0.000000 0.000000 
-0.082439 0.937821 -0.054846 -4.134302 -19.633428 11.872883 6.888976 -0.128049 -7.064651 4.140243 -0.730098 3.890022 8.019260 16.316074 6.912163 0.000000 0.000000 0.000000 -2.324509 2.819770 -23.585030 -3.059862 2.391175 19.592804 3.086290 5.266812 3.008866 0.000000 0.000000 0.000000 -3.256455 0.241517 -1.668923 6.630550 -2.522974 -7.018579 2.170860 -12.651829 1.222074 -4.971990 1.743037 -18.888798 0.000000 0.000000 0.000000 12.960911 0.922610 -1.823162 -49.377063 -18.671428 6.104159 173.163502 -73.784152 -148.302747 0.000000 0.000000 0.000000 -7.571425 3.182529 3.243052 64.163772 23.974316 1.860803 156.085026 66.654756 131.045667 0.000000 0.000000 0.000000 
-0.080204 0.931188 -0.055578 -5.275284 -27.193058 11.534478 7.241013 0.113810 -5.851205 2.732561 -0.496874 6.585770 11.093288 21.986011 6.818661 0.000000 0.000000 0.000000 -0.640589 3.644837 -25.291982 -4.178786 3.458157 22.167363 5.167000 10.159168 3.390514 0.000000 0.000000 0.000000 -2.035617 0.123279 0.332378 6.870576 -2.656721 -6.006945 2.711695 -14.782137 0.954380 -5.621606 1.370928 -21.238242 0.000000 0.000000 0.000000 8.594852 -0.678520 -1.143657 -48.465101 -20.711853 6.949389 143.316562 -79.018930 -112.806976 0.000000 0.000000 0.000000 -4.965583 1.250149 2.088600 64.906519 20.306191 -0.988826 135.948627 64.100034 96.288917 0.000000 0.000000 0.000000 
-0.076480 0.923927 -0.053438 -6.282329 -32.406024 11.868237 7.745870 0.314175 -5.312107 1.104935 -0.000478 9.018099 12.526398 25.203183 5.796349 0.000000 0.000000 0.000000 0.467701 4.330103 -26.647563 -5.422482 4.291982 23.206321 6.912693 14.594608 3.709305 0.000000 0.000000 0.000000 -1.354153 0.055540 1.238284 7.226414 -2.748867 -5.906694 2.520710 -17.780830 1.861464 -4.775746 0.295754 -22.193423 0.000000 0.000000 0.000000 6.206539 -1.726025 -0.361002 -52.645794 -24.873530 10.519882 78.023262 -76.961689 -44.555618 0.000000 0.000000 0.000000 -3.773336 -0.632961 1.080928 66.419962 15.120935 -5.193866 122.183932 57.468835 68.651125 0.000000 0.000000 0.000000 
-0.071330 0.920610 -0.048367 -7.513122 -38.539712 12.212871 7.616689 0.494622 -3.005630 0.528404 0.269598 8.753981 14.033334 28.035337 6.672940 0.000000 0.000000 0.000000 1.295179 4.998789 -27.607665 -6.139696 4.948632 23.745755 9.287254 18.915347 5.410199 0.000000 0.000000 0.000000 -0.313395 -0.054246 2.510738 7.391880 -2.741814 -6.075111 2.062324 -18.726427 2.340276 -2.484346 -1.174024 -21.787517 0.000000 0.000000 0.000000 4.343131 -3.184786 0.871028 -56.430565 -26.243033 12.885694 66.628231 -72.577330 -31.741123 0.000000 0.000000 0.000000 -2.927368 -0.603756 0.543434 65.824300 9.809615 -8.540232 118.643605 54.513825 58.953335 0.000000 0.000000 0.000000 
-0.065832 0.919533 -0.042002 -7.910417 -43.285345 12.879935 6.194962 0.439882 -2.221269 0.933165 0.221195 7.938556 15.184558 29.483560 8.422425 0.000000 0.000000 0.000000 1.245501 5.440687 -28.403365 -7.329254 5.206139 22.729515 11.186280 21.642686 7.139981 0.000000 0.000000 0.000000 -0.195247 -0.052309 2.301725 7.640519 -2.742540 -5.776753 2.195399 -20.222860 1.438031 -2.447766 -1.387417 -21.509108 0.000000 0.000000 0.000000 2.152983 -2.353061 1.444266 -61.492962 -28.485812 16.698093 62.668172 -71.496211 -27.724855 0.000000 0.000000 0.000000 -3.018330 -0.692480 0.447265 63.747609 8.362944 -9.208498 115.789757 55.108810 54.757355 0.000000 0.000000 0.000000 
-0.060835 0.921657 -0.035965 -8.760975 -47.959359 13.946782 5.813385 0.547285 -0.954551 0.726780 0.240605 6.152191 16.880971 30.707054 11.810164 0.000000 0.000000 0.000000 1.933070 5.781774 -28.442781 -9.131379 5.344716 20.921980 15.071632 25.595653 11.176936 0.000000 0.000000 0.000000 0.241757 -0.064974 1.801528 7.824603 -2.691181 -6.073365 1.955044 -20.306193 1.271396 -1.323813 -1.978252 -20.623248 0.000000 0.000000 0.000000 0.701615 -2.608034 2.334496 -63.896426 -30.418474 19.177408 62.165130 -74.320790 -28.694427 0.000000 0.000000 0.000000 -3.737560 -0.791838 0.736186 61.642145 8.210212 -9.163429 116.798656 59.522929 60.313957 0.000000 0.000000 0.000000 
-0.057781 0.927054 -0.030979 -9.579366 -50.333648 15.335716 4.749985 0.533174 0.557111 2.610911 -0.315041 3.158195 17.044314 29.108558 14.877283 0.000000 0.000000 0.000000 2.607970 5.711501 -27.713062 -10.648368 4.808084 17.854752 18.013658 27.412229 14.490230 0.000000 0.000000 0.000000 0.429421 -0.005397 0.241955 8.445171 -2.765490 -5.530938 2.346588 -21.985101 -0.329162 -1.915982 -1.698519 -20.512521 0.000000 0.000000 0.000000 -0.293261 -1.750357 2.582258 -65.600955 -30.645146 20.577050 63.947949 -79.077031 -32.426613 0.000000 0.000000 0.000000 -5.180048 -0.674836 1.606049 60.551162 11.316641 -8.196847 116.792090 64.220392 65.189245 0.000000 0.000000 0.000000 
-0.056547 0.934954 -0.027831 -10.072834 -51.943892 16.300826 3.852772 0.556506 1.734673 3.726270 -0.551695 0.303020 17.547010 27.246756 19.348539 0.000000 0.000000 0.000000 2.880679 5.382747 -26.516078 -11.564063 3.877165 14.125984 21.679282 28.402239 19.012591 0.000000 0.000000 0.000000 0.722887 0.064565 -1.030665 8.974173 -2.819904 -5.842826 1.779886 -23.394013 -1.072586 -1.454925 -1.754899 -18.825875 0.000000 0.000000 0.000000 1.094730 -1.925577 2.305996 -66.879927 -29.636542 21.548875 75.025726 -82.135149 -43.614120 0.000000 0.000000 0.000000 -7.125292 -1.812538 2.514434 60.978489 13.178132 -8.537834 119.766238 64.900948 68.121855 0.000000 0.000000 0.000000 
-0.056216 0.943234 -0.027280 -10.495738 -52.532394 16.910966 3.236644 0.633636 3.052765 5.508576 -0.747869 -2.062880 16.955818 24.601872 22.395842 0.000000 0.000000 0.000000 3.127181 4.959681 -25.239227 -11.650018 3.083070 11.381778 23.456054 27.919508 21.519625 0.000000 0.000000 0.000000 0.693923 0.177635 -2.389459 9.395032 -2.886792 -6.112971 2.047188 -25.038733 -1.979574 -1.339046 -1.684054 -18.238347 0.000000 0.000000 0.000000 3.010413 -3.001487 2.227911 -68.315626 -30.159708 23.962000 82.564321 -79.446127 -48.370026 0.000000 0.000000 0.000000 -9.266949 -2.284752 3.802361 60.661118 15.782232 -8.383032 125.596027 64.646271 72.952441 0.000000 0.000000 0.000000 
-0.055546 0.946986 -0.029886 -10.559985 -51.822165 17.604759 3.479916 0.610848 2.843460 5.785290 -0.736480 -2.797331 17.187361 24.394151 23.620428 0.000000 0.000000 0.000000 3.165980 4.769694 -24.750775 -11.228842 2.412605 9.191559 24.679754 28.138667 23.097023 0.000000 0.000000 0.000000 0.277561 0.277284 -3.296728 10.327419 -3.072272 -7.378455 1.293932 -26.465517 -1.726970 -1.601072 -1.650335 -18.368067 0.000000 0.000000 0.000000 6.148334 -3.995985 1.446151 -69.579015 -31.017719 26.814505 81.733948 -76.418190 -45.123343 0.000000 0.000000 0.000000 -11.149819 -3.454500 4.744181 61.179738 18.398683 -8.422283 128.990513 63.093321 74.308853 0.000000 0.000000 0.000000 
-0.053921 0.947723 -0.034768 -10.864714 -51.148430 18.676475 4.327518 0.578389 1.955753 5.554286 -0.686841 -3.071792 16.782504 23.805201 23.276173 0.000000 0.000000 0.000000 2.938758 4.843881 -25.109268 -10.666596 2.177024 8.684196 24.435877 28.427611 22.661510 0.000000 0.000000 0.000000 0.080390 0.368960 -4.119204 10.686473 -3.127153 -7.917542 1.368739 -26.569584 -2.121385 -1.771470 -1.581791 -18.795497 0.000000 0.000000 0.000000 7.195301 -5.632195 1.850785 -68.635763 -32.948017 27.963730 82.575014 -73.184856 -43.666021 0.000000 0.000000 0.000000 -12.217810 -3.741540 5.411353 61.479266 19.594043 -8.344702 134.397979 61.418646 78.650243 0.000000 0.000000 0.000000 
-0.051955 0.945962 -0.040509 -10.746253 -50.283317 18.714205 5.158187 0.559516 0.812117 4.817734 -0.660866 -1.761348 15.503493 22.792115 20.789756 0.000000 0.000000 0.000000 2.529437 4.933440 -25.626232 -10.059826 2.264163 9.599072 24.021432 28.905641 21.961199 0.000000 0.000000 0.000000 -0.346516 0.396453 -4.284627 11.367226 -3.314273 -7.180147 1.708766 -25.875821 -3.686657 -2.786463 -0.985499 -18.896682 0.000000 0.000000 0.000000 7.202861 -6.044597 2.007922 -68.369176 -34.639564 28.684234 76.812121 -73.634514 -39.913908 0.000000 0.000000 0.000000 -12.184450 -4.285588 5.351302 61.650143 21.702899 -7.022045 136.360974 59.971196 79.930139 0.000000 0.000000 0.000000 
-0.050529 0.944592 -0.045285 -10.257361 -49.425301 18.183133 5.424018 0.568160 0.826181 4.594068 -0.636366 -1.568527 14.414559 21.516332 19.765221 0.000000 0.000000 0.000000 2.565042 4.705105 -25.075674 -10.541938 2.178906 8.825784 23.331379 29.688226 20.482000 0.000000 0.000000 0.000000 -0.680646 0.397227 -4.258172 11.523762 -3.392023 -7.081418 1.915788 -25.044662 -4.533569 -3.479038 -0.575879 -18.948071 0.000000 0.000000 0.000000 6.897436 -6.158794 2.115297 -67.393135 -35.113741 28.084609 73.193291 -75.641229 -39.033248 0.000000 0.000000 0.000000 -12.336785 -3.974681 5.531505 62.794797 24.210783 -6.058186 138.436345 59.492511 83.291678 0.000000 0.000000 0.000000 
